<svg width="181" height="129" viewBox="0 0 181 129" fill="none" xmlns="http://www.w3.org/2000/svg">
<g clip-path="url(#clip0_106_1125)">
<g clip-path="url(#clip1_106_1125)">
<path d="M86.0425 41.2417C95.6986 41.2417 103.526 33.4139 103.526 23.7578C103.526 14.1018 95.6986 6.27393 86.0425 6.27393C76.3864 6.27393 68.5586 14.1018 68.5586 23.7578C68.5586 33.4139 76.3864 41.2417 86.0425 41.2417Z" fill="#323238" stroke="#121214" stroke-width="3.24324"/>
<path d="M121.01 70.3816C121.01 60.7252 113.183 52.8977 103.526 52.8977H68.5586C58.9025 52.8977 51.0747 60.7252 51.0747 70.3816V87.8655H121.01V70.3816Z" fill="#323238" stroke="#121214" stroke-width="3.24324"/>
<path fill-rule="evenodd" clip-rule="evenodd" d="M125.934 46.3098C126.148 46.7251 126.201 47.2569 126.308 48.3205C126.509 50.3338 126.61 51.3404 127.031 51.8927C127.565 52.5933 128.435 52.9533 129.308 52.8359C129.996 52.7432 130.779 52.1026 132.345 50.8214C133.173 50.1445 133.586 49.8061 134.031 49.6639C134.597 49.4833 135.208 49.5138 135.753 49.7498C136.181 49.9356 136.559 50.3135 137.315 51.0693L139.507 53.2606C140.262 54.0165 140.64 54.3944 140.826 54.8231C141.062 55.3677 141.093 55.9793 140.912 56.5446C140.77 56.9897 140.431 57.4033 139.754 58.2307C138.473 59.7966 137.833 60.5796 137.74 61.2681C137.623 62.1414 137.983 63.0106 138.683 63.545C139.235 63.9664 140.242 64.067 142.255 64.2683C143.319 64.3747 143.851 64.4279 144.266 64.642C144.794 64.9142 145.205 65.3682 145.423 65.9201C145.595 66.3547 145.595 66.8891 145.595 67.9579V71.0573C145.595 72.1259 145.595 72.6603 145.423 73.0947C145.205 73.6467 144.794 74.101 144.266 74.3729C143.851 74.5871 143.319 74.6403 142.256 74.7465C140.243 74.9478 139.237 75.0484 138.684 75.4695C137.983 76.0042 137.623 76.8736 137.741 77.7472C137.834 78.4354 138.474 79.2181 139.755 80.7836C140.432 81.6106 140.77 82.0241 140.912 82.469C141.093 83.0346 141.062 83.6462 140.826 84.191C140.64 84.6197 140.263 84.9974 139.507 85.753L137.315 87.9447C136.56 88.7003 136.182 89.0783 135.753 89.2642C135.208 89.5001 134.597 89.5305 134.031 89.35C133.586 89.2078 133.173 88.8693 132.345 88.1924C130.779 86.9111 129.996 86.2705 129.308 86.1781C128.435 86.0606 127.565 86.4206 127.031 87.1211C126.61 87.6734 126.509 88.6802 126.308 90.6938C126.201 91.758 126.148 92.2899 125.934 92.7054C125.662 93.2327 125.208 93.6433 124.656 93.8616C124.222 94.0335 123.687 94.0335 122.618 94.0335H119.519C118.45 94.0335 117.916 94.0335 117.481 93.8616C116.929 93.6435 116.475 93.2325 116.203 92.7052C115.989 92.2899 115.936 91.758 115.829 90.6943C115.628 88.6809 115.527 87.6744 115.106 87.1221C114.572 86.4216 113.702 86.0616 112.829 86.179C112.141 86.2715 111.358 86.9121 109.792 88.1936C108.964 88.8705 108.551 89.209 108.105 89.351C107.54 89.5317 106.929 89.5011 106.384 89.2652C105.955 89.0795 105.577 88.7015 104.822 87.9457L102.63 85.7542C101.874 84.9986 101.496 84.6207 101.311 84.1919C101.075 83.6472 101.044 83.0358 101.225 82.4705C101.367 82.0253 101.705 81.6116 102.382 80.7843C103.664 79.2183 104.304 78.4354 104.397 77.7467C104.514 76.8736 104.154 76.0044 103.454 75.47C102.901 75.0486 101.895 74.9478 99.8815 74.7465C98.8179 74.6403 98.2861 74.5871 97.8708 74.3729C97.3434 74.1007 96.9325 73.6467 96.7143 73.0949C96.5425 72.6603 96.5425 72.1259 96.5425 71.057V67.9582C96.5425 66.8891 96.5425 66.3544 96.7144 65.9198C96.9326 65.3682 97.3434 64.9142 97.8706 64.6422C98.286 64.4279 98.8179 64.3747 99.8818 64.2683C101.896 64.0669 102.903 63.9663 103.455 63.5447C104.155 63.0103 104.515 62.1414 104.398 61.2683C104.305 60.5797 103.664 59.7964 102.383 58.23C101.706 57.4023 101.367 56.9884 101.225 56.5431C101.044 55.978 101.075 55.3667 101.311 54.8223C101.496 54.3934 101.875 54.0153 102.631 53.2592L104.822 51.0682C105.577 50.3123 105.955 49.9344 106.384 49.7486C106.929 49.5127 107.54 49.4822 108.106 49.6628C108.551 49.805 108.964 50.1435 109.792 50.8205C111.358 52.1016 112.141 52.7421 112.829 52.8349C113.702 52.9525 114.572 52.5923 115.106 51.8915C115.528 51.3393 115.628 50.3329 115.829 48.3202C115.936 47.2569 115.989 46.7252 116.203 46.31C116.475 45.7824 116.929 45.3714 117.481 45.1532C117.916 44.9814 118.45 44.9814 119.519 44.9814H122.618C123.687 44.9814 124.221 44.9814 124.656 45.1533C125.208 45.3715 125.662 45.7824 125.934 46.3098ZM121.069 79.3179C126.487 79.3179 130.879 74.9255 130.879 69.5075C130.879 64.0893 126.487 59.6971 121.069 59.6971C115.65 59.6971 111.258 64.0893 111.258 69.5075C111.258 74.9255 115.65 79.3179 121.069 79.3179Z" fill="#00875F"/>
<path d="M142.256 74.7464L142.11 73.2822L142.062 73.2871L142.014 73.2949L142.256 74.7464ZM142.256 74.7464L142.402 76.2108L142.45 76.2059L142.498 76.1981L142.256 74.7464ZM132.346 88.1923L133.278 87.0533L133.265 87.0432L132.346 88.1923ZM132.346 88.1923L131.414 89.3313L131.426 89.3413L132.346 88.1923ZM109.792 88.1935L108.86 87.0545L108.837 87.0736L108.814 87.0935L109.792 88.1935ZM109.792 88.1935L110.724 89.3323L110.747 89.3134L110.77 89.2933L109.792 88.1935ZM99.8822 64.2682V62.7966H99.8088L99.7358 62.804L99.8822 64.2682ZM99.8822 64.2682L99.8822 65.7397H99.9556L100.029 65.7326L99.8822 64.2682ZM127.772 48.174C127.721 47.6616 127.676 47.2057 127.613 46.8282C127.547 46.4363 127.447 46.0329 127.242 45.6351L124.626 46.9842C124.635 47.0018 124.669 47.0719 124.71 47.3156C124.754 47.5737 124.789 47.9156 124.844 48.4668L127.772 48.174ZM128.201 51C128.21 51.0116 128.128 50.9097 128.036 50.3937C127.945 49.8918 127.875 49.2053 127.772 48.174L124.844 48.4668C124.942 49.4487 125.023 50.2722 125.139 50.915C125.252 51.5437 125.431 52.2212 125.861 52.7851L128.201 51ZM129.112 51.3773C128.763 51.4243 128.415 51.2803 128.201 51L125.861 52.7851C126.717 53.9061 128.107 54.4821 129.504 54.2942L129.112 51.3773ZM131.414 49.6824C130.612 50.3387 130.077 50.7748 129.658 51.0658C129.227 51.365 129.098 51.3793 129.112 51.3773L129.504 54.2942C130.207 54.1996 130.813 53.8472 131.338 53.4826C131.874 53.1099 132.514 52.5851 133.277 51.9602L131.414 49.6824ZM133.584 48.262C133.158 48.3982 132.802 48.6129 132.478 48.8435C132.166 49.0657 131.812 49.3563 131.414 49.6824L133.277 51.9602C133.706 51.6094 133.973 51.3924 134.186 51.2405C134.387 51.0972 134.461 51.0716 134.479 51.0656L133.584 48.262ZM136.338 48.3994C135.467 48.0219 134.488 47.9731 133.584 48.262L134.479 51.0656C134.706 50.9933 134.95 51.0055 135.168 51.0999L136.338 48.3994ZM138.356 50.0286C137.992 49.6645 137.669 49.3401 137.381 49.0881C137.081 48.8264 136.749 48.5773 136.338 48.3994L135.168 51.0999C135.186 51.1078 135.257 51.1406 135.443 51.3032C135.64 51.4756 135.883 51.718 136.275 52.1097L138.356 50.0286ZM140.547 52.2199L138.356 50.0286L136.275 52.1097L138.466 54.3011L140.547 52.2199ZM142.177 54.2379C141.999 53.8273 141.75 53.4947 141.488 53.1955C141.236 52.9074 140.912 52.5841 140.547 52.2199L138.466 54.3011C138.858 54.6928 139.101 54.9363 139.273 55.1333C139.436 55.3193 139.468 55.39 139.476 55.4081L142.177 54.2379ZM142.314 56.9923C142.603 56.0878 142.554 55.1092 142.177 54.2379L139.476 55.4081C139.571 55.6259 139.583 55.8705 139.511 56.0967L142.314 56.9923ZM140.894 59.1624C141.22 58.7639 141.511 58.4098 141.733 58.0981C141.963 57.7744 142.178 57.4186 142.314 56.9923L139.511 56.0967C139.505 56.1155 139.479 56.1891 139.336 56.3903C139.184 56.6035 138.967 56.8699 138.616 57.2987L140.894 59.1624ZM139.199 61.4642C139.197 61.4786 139.211 61.3487 139.51 60.9181C139.801 60.4993 140.237 59.9646 140.894 59.1624L138.616 57.2987C137.991 58.0625 137.466 58.7022 137.093 59.2385C136.729 59.7631 136.377 60.3689 136.282 61.0718L139.199 61.4642ZM139.576 62.3749C139.296 62.1612 139.152 61.8135 139.199 61.4642L136.282 61.0718C136.094 62.4691 136.67 63.8598 137.791 64.715L139.576 62.3749ZM142.402 62.804C141.371 62.7009 140.684 62.6311 140.182 62.5408C139.666 62.4479 139.564 62.3661 139.576 62.3749L137.791 64.715C138.355 65.1452 139.032 65.3242 139.661 65.4373C140.304 65.553 141.128 65.6342 142.109 65.7326L142.402 62.804ZM144.941 63.3342C144.543 63.129 144.14 63.0293 143.748 62.9634C143.37 62.9001 142.915 62.8552 142.402 62.804L142.109 65.7326C142.661 65.7877 143.003 65.8226 143.261 65.866C143.504 65.9069 143.574 65.9408 143.592 65.9499L144.941 63.3342ZM146.792 65.3789C146.443 64.4959 145.785 63.7694 144.941 63.3342L143.592 65.9499C143.803 66.0588 143.967 66.2403 144.055 66.461L146.792 65.3789ZM147.066 67.9578C147.066 67.443 147.067 66.9849 147.042 66.603C147.015 66.2064 146.956 65.7951 146.792 65.3789L144.055 66.461C144.062 66.4794 144.089 66.5525 144.105 66.799C144.123 67.0602 144.123 67.4038 144.123 67.9578H147.066ZM147.066 71.0572V67.9578H144.123V71.0572H147.066ZM146.792 73.6356C146.956 73.2194 147.015 72.8083 147.042 72.4117C147.067 72.0299 147.066 71.572 147.066 71.0572H144.123C144.123 71.611 144.123 71.9546 144.105 72.2155C144.089 72.462 144.062 72.5354 144.055 72.5537L146.792 73.6356ZM144.941 75.6808C145.785 75.2455 146.443 74.5188 146.792 73.6356L144.055 72.5537C143.967 72.7745 143.803 72.9562 143.592 73.0649L144.941 75.6808ZM142.402 76.2108C142.915 76.1596 143.37 76.1147 143.748 76.0514C144.14 75.9854 144.543 75.8859 144.941 75.6808L143.592 73.0649C143.574 73.0739 143.504 73.1078 143.261 73.1487C143.003 73.1922 142.661 73.227 142.11 73.2822L142.402 76.2108ZM139.577 76.6395C139.565 76.6484 139.667 76.5667 140.183 76.4737C140.685 76.3835 141.371 76.3138 142.402 76.2108L142.11 73.2822C141.128 73.3803 140.305 73.4617 139.662 73.5772C139.034 73.6903 138.356 73.8693 137.792 74.2993L139.577 76.6395ZM139.2 77.5507C139.153 77.2012 139.297 76.8534 139.577 76.6395L137.792 74.2993C136.671 75.1545 136.095 76.5458 136.283 77.9436L139.2 77.5507ZM140.894 79.8515C140.238 79.0497 139.802 78.515 139.511 78.0964C139.212 77.6662 139.198 77.5362 139.2 77.5507L136.283 77.9436C136.378 78.6463 136.73 79.2518 137.094 79.7762C137.467 80.3123 137.992 80.9517 138.616 81.7152L140.894 79.8515ZM142.314 82.0208C142.178 81.5948 141.963 81.2392 141.733 80.9154C141.511 80.6039 141.22 80.25 140.894 79.8515L138.616 81.7152C138.967 82.1439 139.184 82.4103 139.336 82.6234C139.479 82.8245 139.505 82.8981 139.511 82.9167L142.314 82.0208ZM142.177 84.7763C142.554 83.9046 142.603 82.9256 142.314 82.0208L139.511 82.9167C139.583 83.1431 139.571 83.3879 139.476 83.6057L142.177 84.7763ZM140.548 86.7933C140.912 86.4293 141.236 86.1061 141.488 85.8182C141.75 85.5192 141.999 85.1866 142.177 84.7763L139.476 83.6057C139.469 83.6238 139.436 83.6945 139.273 83.8804C139.101 84.0773 138.858 84.3206 138.467 84.7123L140.548 86.7933ZM138.356 88.985L140.548 86.7933L138.467 84.7123L136.275 86.9039L138.356 88.985ZM136.338 90.6142C136.749 90.4364 137.082 90.1872 137.381 89.9255C137.669 89.6737 137.992 89.3492 138.356 88.985L136.275 86.9039C135.883 87.2956 135.64 87.5382 135.443 87.7103C135.257 87.8732 135.186 87.9058 135.168 87.9137L136.338 90.6142ZM133.584 90.7516C134.489 91.0405 135.467 90.9917 136.338 90.6142L135.168 87.9137C134.95 88.0081 134.706 88.0204 134.479 87.948L133.584 90.7516ZM131.414 89.3313C131.812 89.6572 132.166 89.9481 132.478 90.1701C132.802 90.4006 133.158 90.6155 133.584 90.7516L134.479 87.948C134.461 87.9421 134.387 87.9164 134.186 87.7731C133.973 87.6213 133.706 87.404 133.278 87.0533L131.414 89.3313ZM129.112 87.6363C129.098 87.6343 129.228 87.6485 129.658 87.9478C130.077 88.2389 130.611 88.675 131.414 89.3313L133.278 87.0533C132.514 86.4286 131.874 85.9038 131.338 85.531C130.813 85.1665 130.208 84.8141 129.505 84.7194L129.112 87.6363ZM128.201 88.0135C128.415 87.7334 128.763 87.5894 129.112 87.6363L129.505 84.7194C128.107 84.5315 126.716 85.1076 125.862 86.2285L128.201 88.0135ZM127.772 90.8401C127.875 89.8088 127.945 89.1221 128.036 88.62C128.128 88.104 128.21 88.002 128.201 88.0135L125.862 86.2285C125.431 86.7923 125.252 87.47 125.139 88.0988C125.023 88.7417 124.942 89.5652 124.844 90.5473L127.772 90.8401ZM127.242 93.38C127.447 92.9822 127.547 92.5785 127.613 92.1866C127.676 91.8089 127.721 91.3527 127.772 90.8401L124.844 90.5473C124.789 91.0989 124.754 91.4408 124.71 91.699C124.669 91.9428 124.635 92.0129 124.626 92.0306L127.242 93.38ZM125.198 95.23C126.081 94.8808 126.807 94.2235 127.242 93.38L124.626 92.0306C124.517 92.2415 124.336 92.4059 124.115 92.4932L125.198 95.23ZM122.618 95.505C123.133 95.505 123.591 95.5057 123.973 95.4802C124.37 95.4537 124.782 95.3946 125.198 95.23L124.115 92.4932C124.097 92.5003 124.024 92.5273 123.777 92.5437C123.516 92.5611 123.172 92.5618 122.618 92.5618V95.505ZM119.519 95.505H122.618V92.5618H119.519V95.505ZM116.94 95.23C117.357 95.3946 117.768 95.4537 118.165 95.4802C118.546 95.5057 119.005 95.505 119.519 95.505V92.5618C118.965 92.5618 118.622 92.5611 118.36 92.5437C118.114 92.5273 118.041 92.5003 118.023 92.4932L116.94 95.23ZM114.896 93.3795C115.331 94.2235 116.057 94.881 116.94 95.23L118.023 92.4932C117.802 92.4059 117.62 92.2415 117.511 92.0306L114.896 93.3795ZM114.366 90.8408C114.417 91.3532 114.462 91.8091 114.525 92.1866C114.591 92.5785 114.691 92.982 114.896 93.3795L117.511 92.0306C117.502 92.0129 117.468 91.9428 117.428 91.6993C117.384 91.441 117.349 91.0991 117.294 90.5478L114.366 90.8408ZM113.936 88.0145C113.928 88.0029 114.009 88.105 114.102 88.621C114.193 89.1228 114.262 89.8093 114.366 90.8408L117.294 90.5478C117.196 89.566 117.115 88.7424 116.999 88.0996C116.886 87.471 116.706 86.7933 116.276 86.2295L113.936 88.0145ZM113.026 87.6373C113.375 87.5904 113.723 87.7344 113.936 88.0145L116.276 86.2295C115.421 85.1086 114.031 84.5325 112.633 84.7204L113.026 87.6373ZM110.724 89.3323C111.526 88.6759 112.061 88.2399 112.48 87.9487C112.91 87.6495 113.04 87.6353 113.026 87.6373L112.633 84.7204C111.93 84.815 111.325 85.1675 110.8 85.5319C110.264 85.9047 109.624 86.4296 108.86 87.0545L110.724 89.3323ZM108.554 90.7528C108.98 90.6167 109.336 90.4018 109.659 90.1713C109.971 89.9491 110.325 89.6584 110.724 89.3323L108.86 87.0545C108.431 87.4052 108.165 87.6223 107.952 87.7741C107.75 87.9176 107.677 87.9431 107.658 87.9492L108.554 90.7528ZM105.799 90.6155C106.671 90.9929 107.649 91.0417 108.554 90.7528L107.658 87.9492C107.432 88.0213 107.187 88.0093 106.97 87.9149L105.799 90.6155ZM103.781 88.9862C104.145 89.3502 104.469 89.6746 104.757 89.9268C105.056 90.1885 105.389 90.4374 105.799 90.6155L106.97 87.9149C106.951 87.907 106.881 87.8742 106.695 87.7116C106.498 87.5392 106.254 87.2968 105.862 86.9049L103.781 88.9862ZM101.59 86.7948L103.781 88.9862L105.862 86.9049L103.671 84.7138L101.59 86.7948ZM99.9608 84.7768C100.139 85.1873 100.388 85.5202 100.649 85.8191C100.901 86.1073 101.226 86.4308 101.59 86.7948L103.671 84.7138C103.279 84.3221 103.037 84.0785 102.865 83.8813C102.702 83.6954 102.669 83.6248 102.661 83.6066L99.9608 84.7768ZM99.8234 82.0225C99.5345 82.927 99.5833 83.9056 99.9608 84.7768L102.661 83.6066C102.567 83.3889 102.555 83.1443 102.627 82.9182L99.8234 82.0225ZM101.244 79.8525C100.918 80.2508 100.627 80.6049 100.405 80.9166C100.174 81.2404 99.9596 81.5963 99.8234 82.0225L102.627 82.9182C102.633 82.8993 102.659 82.8257 102.802 82.6244C102.954 82.4113 103.171 82.1449 103.522 81.7159L101.244 79.8525ZM102.939 77.5507C102.941 77.5362 102.927 77.666 102.627 78.0966C102.336 78.5153 101.9 79.0502 101.244 79.8525L103.522 81.7159C104.147 80.9522 104.671 80.3126 105.044 79.7762C105.409 79.2516 105.761 78.6458 105.856 77.9429L102.939 77.5507ZM102.562 76.6398C102.842 76.8536 102.986 77.2012 102.939 77.5507L105.856 77.9429C106.044 76.5456 105.468 75.155 104.347 74.2998L102.562 76.6398ZM99.7355 76.2108C100.767 76.3138 101.453 76.3837 101.955 76.474C102.471 76.5667 102.573 76.6486 102.562 76.6398L104.347 74.2998C103.783 73.8696 103.105 73.6905 102.476 73.5772C101.834 73.4617 101.01 73.3805 100.028 73.2822L99.7355 76.2108ZM97.1967 75.6806C97.5944 75.8859 97.9978 75.9854 98.3898 76.0514C98.7672 76.1147 99.2231 76.1596 99.7355 76.2108L100.028 73.2822C99.4771 73.227 99.1353 73.1922 98.8771 73.1487C98.6334 73.1078 98.5633 73.0739 98.5457 73.0649L97.1967 75.6806ZM95.3462 73.6358C95.6953 74.5188 96.3528 75.2452 97.1967 75.6806L98.5457 73.0649C98.3348 72.956 98.1704 72.7745 98.0831 72.5537L95.3462 73.6358ZM95.0713 71.0569C95.0713 71.5717 95.0705 72.0299 95.096 72.4117C95.1225 72.8083 95.1816 73.2196 95.3462 73.6358L98.0831 72.5537C98.0759 72.5354 98.0491 72.4623 98.0326 72.2155C98.0152 71.9546 98.0144 71.611 98.0144 71.0569H95.0713ZM95.0713 67.9581V71.0569H98.0144V67.9581H95.0713ZM95.3463 65.3787C95.1817 65.7949 95.1226 66.2062 95.096 66.603C95.0705 66.9849 95.0713 67.443 95.0713 67.9581H98.0144C98.0144 67.404 98.0152 67.0604 98.0326 66.799C98.0491 66.5525 98.0759 66.4794 98.0832 66.461L95.3463 65.3787ZM97.1963 63.3343C96.3527 63.7695 95.6954 64.4958 95.3463 65.3787L98.0832 66.461C98.1705 66.2403 98.3348 66.0588 98.5457 65.9499L97.1963 63.3343ZM99.7358 62.804C99.2233 62.8552 98.7673 62.9001 98.3897 62.9635C97.9976 63.0293 97.5941 63.1291 97.1963 63.3343L98.5457 65.9499C98.5632 65.9408 98.6334 65.9069 98.8771 65.866C99.1353 65.8226 99.4772 65.7875 100.029 65.7326L99.7358 62.804ZM102.563 62.3748C102.574 62.3659 102.472 62.4478 101.956 62.5407C101.454 62.6311 100.767 62.7008 99.7358 62.804L100.029 65.7326C101.011 65.6342 101.834 65.553 102.477 65.4373C103.106 65.3242 103.784 65.1449 104.348 64.7145L102.563 62.3748ZM102.94 61.4642C102.987 61.8134 102.843 62.161 102.563 62.3748L104.348 64.7145C105.469 63.8594 106.044 62.4692 105.857 61.0723L102.94 61.4642ZM101.244 59.1617C101.901 59.9642 102.337 60.4991 102.628 60.918C102.928 61.3487 102.942 61.4786 102.94 61.4642L105.857 61.0723C105.762 60.3692 105.41 59.7632 105.045 59.2384C104.672 58.702 104.147 58.062 103.522 57.298L101.244 59.1617ZM99.8234 56.9906C99.9596 57.4171 100.174 57.7731 100.405 58.0969C100.627 58.4088 100.918 58.763 101.244 59.1617L103.522 57.298C103.171 56.869 102.954 56.6025 102.802 56.3892C102.659 56.1879 102.633 56.1142 102.627 56.0954L99.8234 56.9906ZM99.9607 54.2374C99.5835 55.1083 99.5347 56.0865 99.8234 56.9906L102.627 56.0954C102.555 55.8694 102.567 55.6248 102.661 55.4071L99.9607 54.2374ZM101.59 52.2185C101.226 52.5828 100.902 52.9063 100.65 53.1945C100.388 53.4938 100.139 53.8266 99.9607 54.2374L102.661 55.4071C102.669 55.389 102.702 55.3183 102.865 55.1322C103.037 54.9351 103.28 54.6915 103.672 54.2996L101.59 52.2185ZM103.781 50.0276L101.59 52.2185L103.672 54.2996L105.863 52.1087L103.781 50.0276ZM105.8 48.3982C105.389 48.5762 105.056 48.8252 104.757 49.0869C104.469 49.339 104.146 49.6634 103.781 50.0276L105.863 52.1087C106.254 51.7169 106.498 51.4745 106.695 51.3021C106.881 51.1394 106.952 51.1066 106.97 51.0988L105.8 48.3982ZM108.554 48.2609C107.649 47.972 106.671 48.0208 105.8 48.3982L106.97 51.0988C107.187 51.0044 107.432 50.9922 107.658 51.0644L108.554 48.2609ZM110.724 49.6815C110.326 49.3553 109.971 49.0646 109.66 48.8425C109.336 48.6118 108.98 48.3971 108.554 48.2609L107.658 51.0644C107.677 51.0705 107.751 51.096 107.952 51.2395C108.165 51.3914 108.432 51.6084 108.86 51.9593L110.724 49.6815ZM113.026 51.3763C113.04 51.3783 112.91 51.3641 112.48 51.0648C112.061 50.7738 111.526 50.3377 110.724 49.6815L108.86 51.9593C109.624 52.5842 110.264 53.1089 110.8 53.4816C111.324 53.8461 111.93 54.1985 112.633 54.2931L113.026 51.3763ZM113.937 50.999C113.723 51.2793 113.375 51.4234 113.026 51.3763L112.633 54.2931C114.031 54.4814 115.422 53.9051 116.277 52.7837L113.937 50.999ZM114.366 48.1736C114.262 49.2047 114.193 49.891 114.102 50.3928C114.01 50.9086 113.928 51.0105 113.937 50.999L116.277 52.7837C116.707 52.2199 116.886 51.5425 116.999 50.914C117.115 50.2714 117.196 49.4482 117.294 48.4665L114.366 48.1736ZM114.895 45.6355C114.69 46.0331 114.591 46.4364 114.525 46.8283C114.462 47.2057 114.417 47.6614 114.366 48.1736L117.294 48.4665C117.349 47.9154 117.384 47.5737 117.428 47.3156C117.468 47.072 117.502 47.0019 117.511 46.9843L114.895 45.6355ZM116.941 43.7845C116.057 44.1336 115.331 44.7913 114.895 45.6355L117.511 46.9843C117.62 46.7733 117.802 46.6089 118.023 46.5216L116.941 43.7845ZM119.519 43.5098C119.004 43.5098 118.546 43.509 118.165 43.5345C117.768 43.561 117.357 43.6201 116.941 43.7845L118.023 46.5216C118.041 46.5143 118.114 46.4875 118.361 46.4711C118.622 46.4537 118.965 46.4529 119.519 46.4529V43.5098ZM122.618 43.5098H119.519V46.4529H122.618V43.5098ZM125.197 43.7847C124.781 43.6201 124.37 43.561 123.973 43.5345C123.591 43.509 123.133 43.5098 122.618 43.5098V46.4529C123.172 46.4529 123.516 46.4537 123.777 46.4711C124.024 46.4876 124.097 46.5144 124.115 46.5216L125.197 43.7847ZM127.242 45.6351C126.807 44.7912 126.08 44.1338 125.197 43.7847L124.115 46.5216C124.336 46.6089 124.517 46.7733 124.626 46.9842L127.242 45.6351ZM129.408 69.5074C129.408 74.1129 125.674 77.8462 121.069 77.8462V80.7893C127.3 80.7893 132.351 75.7382 132.351 69.5074H129.408ZM121.069 61.1685C125.674 61.1685 129.408 64.9019 129.408 69.5074H132.351C132.351 63.2765 127.3 58.2254 121.069 58.2254V61.1685ZM112.73 69.5074C112.73 64.9019 116.463 61.1685 121.069 61.1685V58.2254C114.838 58.2254 109.787 63.2765 109.787 69.5074H112.73ZM121.069 77.8462C116.463 77.8462 112.73 74.1129 112.73 69.5074H109.787C109.787 75.7382 114.838 80.7893 121.069 80.7893V77.8462Z" fill="#121214"/>
<circle cx="121.127" cy="69.5656" r="8.62539" fill="#C4C4CC"/>
</g>
<path d="M10.8838 110.15V114.719C10.7043 114.935 10.4271 115.17 10.0524 115.424C9.67757 115.672 9.19457 115.885 8.60335 116.065C8.01214 116.244 7.29687 116.334 6.45755 116.334C5.71325 116.334 5.03494 116.213 4.42261 115.97C3.81028 115.722 3.28241 115.36 2.83899 114.885C2.40086 114.41 2.06302 113.829 1.82548 113.143C1.58794 112.452 1.46917 111.662 1.46917 110.776V110.055C1.46917 109.168 1.58266 108.379 1.80964 107.688C2.04191 106.996 2.37183 106.413 2.7994 105.938C3.22698 105.463 3.73638 105.101 4.32759 104.853C4.91881 104.605 5.57601 104.481 6.29919 104.481C7.30215 104.481 8.12563 104.644 8.76963 104.972C9.41363 105.294 9.90456 105.742 10.2424 106.318C10.5855 106.888 10.7967 107.542 10.8758 108.281H8.57168C8.51361 107.891 8.40276 107.55 8.23912 107.26C8.07548 106.97 7.84058 106.743 7.53441 106.579C7.23352 106.415 6.8429 106.334 6.36254 106.334C5.96663 106.334 5.61296 106.415 5.30151 106.579C4.99535 106.737 4.73669 106.972 4.52554 107.284C4.31439 107.595 4.15339 107.981 4.04254 108.44C3.93169 108.899 3.87626 109.432 3.87626 110.039V110.776C3.87626 111.377 3.93433 111.911 4.05046 112.375C4.16659 112.834 4.33815 113.222 4.56513 113.539C4.7974 113.851 5.08245 114.085 5.42029 114.244C5.75812 114.402 6.15139 114.481 6.60008 114.481C6.97487 114.481 7.28631 114.45 7.53441 114.386C7.78779 114.323 7.99102 114.246 8.1441 114.157C8.30247 114.062 8.42388 113.972 8.50833 113.887V111.845H6.33878V110.15H10.8838ZM16.6006 116.334C15.9355 116.334 15.339 116.229 14.8111 116.017C14.2833 115.801 13.8346 115.503 13.4651 115.123C13.1008 114.743 12.821 114.302 12.6257 113.8C12.4304 113.294 12.3328 112.755 12.3328 112.185V111.868C12.3328 111.219 12.4251 110.625 12.6099 110.087C12.7947 109.548 13.0586 109.081 13.4017 108.685C13.7501 108.289 14.1724 107.986 14.6686 107.775C15.1648 107.558 15.7243 107.45 16.3472 107.45C16.9543 107.45 17.4927 107.55 17.9625 107.751C18.4323 107.952 18.8256 108.237 19.1423 108.606C19.4643 108.976 19.7071 109.419 19.8708 109.936C20.0344 110.448 20.1162 111.018 20.1162 111.647V112.597H13.3067V111.077H17.8754V110.902C17.8754 110.586 17.8174 110.303 17.7012 110.055C17.5904 109.802 17.4214 109.601 17.1945 109.453C16.9675 109.306 16.6771 109.232 16.3235 109.232C16.0226 109.232 15.7639 109.298 15.5475 109.43C15.3311 109.562 15.1542 109.746 15.017 109.984C14.885 110.221 14.7847 110.501 14.7161 110.823C14.6528 111.14 14.6211 111.488 14.6211 111.868V112.185C14.6211 112.528 14.6686 112.845 14.7636 113.135C14.8639 113.426 15.0038 113.676 15.1833 113.887C15.368 114.099 15.5897 114.262 15.8484 114.378C16.1123 114.495 16.4106 114.553 16.7431 114.553C17.1549 114.553 17.5376 114.473 17.8913 114.315C18.2502 114.151 18.559 113.906 18.8177 113.579L19.9262 114.782C19.7467 115.041 19.5013 115.289 19.1898 115.526C18.8837 115.764 18.5141 115.959 18.0813 116.112C17.6484 116.26 17.1549 116.334 16.6006 116.334ZM23.6952 109.477V116.176H21.4148V107.608H23.5606L23.6952 109.477ZM26.2765 107.553L26.2369 109.667C26.1261 109.651 25.9914 109.638 25.8331 109.628C25.68 109.612 25.5401 109.604 25.4134 109.604C25.0914 109.604 24.8117 109.646 24.5741 109.73C24.3418 109.81 24.1465 109.928 23.9882 110.087C23.8351 110.245 23.719 110.438 23.6398 110.665C23.5659 110.892 23.5236 111.15 23.5131 111.441L23.0538 111.298C23.0538 110.744 23.1093 110.235 23.2201 109.77C23.331 109.3 23.492 108.891 23.7031 108.543C23.9195 108.194 24.1835 107.925 24.4949 107.735C24.8064 107.545 25.1627 107.45 25.5639 107.45C25.6906 107.45 25.8199 107.461 25.9519 107.482C26.0838 107.498 26.192 107.521 26.2765 107.553ZM31.1382 116.334C30.4731 116.334 29.8766 116.229 29.3487 116.017C28.8208 115.801 28.3721 115.503 28.0026 115.123C27.6384 114.743 27.3586 114.302 27.1633 113.8C26.968 113.294 26.8704 112.755 26.8704 112.185V111.868C26.8704 111.219 26.9627 110.625 27.1475 110.087C27.3322 109.548 27.5962 109.081 27.9393 108.685C28.2877 108.289 28.71 107.986 29.2062 107.775C29.7024 107.558 30.2619 107.45 30.8848 107.45C31.4919 107.45 32.0303 107.55 32.5001 107.751C32.9699 107.952 33.3632 108.237 33.6799 108.606C34.0019 108.976 34.2447 109.419 34.4084 109.936C34.572 110.448 34.6538 111.018 34.6538 111.647V112.597H27.8443V111.077H32.413V110.902C32.413 110.586 32.3549 110.303 32.2388 110.055C32.128 109.802 31.959 109.601 31.732 109.453C31.5051 109.306 31.2147 109.232 30.8611 109.232C30.5602 109.232 30.3015 109.298 30.0851 109.43C29.8687 109.562 29.6918 109.746 29.5546 109.984C29.4226 110.221 29.3223 110.501 29.2537 110.823C29.1903 111.14 29.1587 111.488 29.1587 111.868V112.185C29.1587 112.528 29.2062 112.845 29.3012 113.135C29.4015 113.426 29.5414 113.676 29.7209 113.887C29.9056 114.099 30.1273 114.262 30.386 114.378C30.6499 114.495 30.9482 114.553 31.2807 114.553C31.6925 114.553 32.0752 114.473 32.4288 114.315C32.7878 114.151 33.0966 113.906 33.3553 113.579L34.4638 114.782C34.2843 115.041 34.0388 115.289 33.7274 115.526C33.4212 115.764 33.0517 115.959 32.6189 116.112C32.186 116.26 31.6925 116.334 31.1382 116.334ZM38.1853 109.437V116.176H35.9049V107.608H38.0428L38.1853 109.437ZM37.8527 111.591H37.2351C37.2351 110.958 37.3169 110.388 37.4806 109.881C37.6442 109.369 37.8738 108.933 38.1694 108.574C38.4651 108.21 38.8161 107.933 39.2225 107.743C39.6343 107.548 40.0935 107.45 40.6003 107.45C41.0015 107.45 41.3683 107.508 41.7009 107.624C42.0335 107.74 42.3185 107.925 42.5561 108.179C42.7989 108.432 42.9836 108.767 43.1103 109.184C43.2423 109.601 43.3083 110.111 43.3083 110.712V116.176H41.012V110.704C41.012 110.324 40.9592 110.029 40.8537 109.818C40.7481 109.606 40.5924 109.459 40.3865 109.374C40.1859 109.284 39.9378 109.24 39.6422 109.24C39.336 109.24 39.0695 109.3 38.8425 109.422C38.6208 109.543 38.436 109.712 38.2882 109.928C38.1457 110.14 38.0375 110.388 37.9636 110.673C37.8897 110.958 37.8527 111.264 37.8527 111.591ZM48.5817 114.553C48.8615 114.553 49.1096 114.5 49.326 114.394C49.5424 114.283 49.7114 114.13 49.8328 113.935C49.9595 113.734 50.0254 113.499 50.0307 113.23H52.1765C52.1712 113.832 52.0102 114.368 51.6935 114.838C51.3768 115.302 50.9519 115.669 50.4187 115.938C49.8856 116.202 49.2891 116.334 48.6292 116.334C47.9641 116.334 47.3834 116.223 46.8872 116.002C46.3963 115.78 45.9872 115.474 45.6599 115.083C45.3327 114.687 45.0872 114.228 44.9236 113.705C44.7599 113.177 44.6781 112.613 44.6781 112.011V111.781C44.6781 111.174 44.7599 110.609 44.9236 110.087C45.0872 109.559 45.3327 109.1 45.6599 108.709C45.9872 108.313 46.3963 108.004 46.8872 107.783C47.3782 107.561 47.9535 107.45 48.6134 107.45C49.3155 107.45 49.9304 107.585 50.4583 107.854C50.9914 108.123 51.4085 108.508 51.7094 109.01C52.0155 109.506 52.1712 110.095 52.1765 110.776H50.0307C50.0254 110.491 49.9647 110.232 49.8486 110C49.7378 109.767 49.5741 109.583 49.3577 109.445C49.1465 109.303 48.8852 109.232 48.5738 109.232C48.2412 109.232 47.9694 109.303 47.7582 109.445C47.5471 109.583 47.3834 109.773 47.2673 110.016C47.1512 110.253 47.0694 110.525 47.0219 110.831C46.9796 111.132 46.9585 111.449 46.9585 111.781V112.011C46.9585 112.343 46.9796 112.663 47.0219 112.969C47.0641 113.275 47.1433 113.547 47.2594 113.785C47.3808 114.022 47.5471 114.209 47.7582 114.347C47.9694 114.484 48.2439 114.553 48.5817 114.553ZM55.9059 107.608V116.176H53.6176V107.608H55.9059ZM53.4751 105.376C53.4751 105.043 53.5912 104.768 53.8235 104.552C54.0557 104.336 54.3672 104.227 54.7578 104.227C55.1432 104.227 55.452 104.336 55.6842 104.552C55.9218 104.768 56.0405 105.043 56.0405 105.376C56.0405 105.708 55.9218 105.983 55.6842 106.199C55.452 106.415 55.1432 106.524 54.7578 106.524C54.3672 106.524 54.0557 106.415 53.8235 106.199C53.5912 105.983 53.4751 105.708 53.4751 105.376ZM62.4146 114.244V110.427C62.4146 110.153 62.3697 109.918 62.28 109.723C62.1902 109.522 62.0504 109.366 61.8603 109.255C61.6756 109.145 61.4354 109.089 61.1398 109.089C60.8864 109.089 60.6673 109.134 60.4826 109.224C60.2978 109.308 60.1553 109.432 60.055 109.596C59.9547 109.754 59.9046 109.942 59.9046 110.158H57.6242C57.6242 109.794 57.7086 109.448 57.8775 109.121C58.0465 108.793 58.2919 108.506 58.6139 108.258C58.9359 108.004 59.3186 107.806 59.762 107.664C60.2107 107.521 60.7122 107.45 61.2665 107.45C61.9316 107.45 62.5228 107.561 63.0401 107.783C63.5574 108.004 63.9639 108.337 64.2595 108.78C64.5604 109.224 64.7108 109.778 64.7108 110.443V114.109C64.7108 114.579 64.7399 114.964 64.7979 115.265C64.856 115.561 64.9405 115.819 65.0513 116.041V116.176H62.7471C62.6363 115.944 62.5518 115.653 62.4938 115.305C62.441 114.951 62.4146 114.597 62.4146 114.244ZM62.7155 110.958L62.7313 112.248H61.4565C61.1556 112.248 60.8943 112.283 60.6726 112.351C60.4509 112.42 60.2688 112.518 60.1263 112.644C59.9837 112.766 59.8782 112.908 59.8095 113.072C59.7462 113.236 59.7145 113.415 59.7145 113.61C59.7145 113.806 59.7594 113.982 59.8491 114.141C59.9389 114.294 60.0682 114.415 60.2371 114.505C60.406 114.59 60.604 114.632 60.831 114.632C61.1741 114.632 61.4723 114.563 61.7257 114.426C61.9791 114.289 62.1744 114.12 62.3117 113.919C62.4542 113.719 62.5281 113.529 62.5334 113.349L63.1351 114.315C63.0507 114.531 62.9345 114.756 62.7867 114.988C62.6442 115.22 62.4621 115.439 62.2404 115.645C62.0187 115.846 61.7521 116.012 61.4407 116.144C61.1292 116.271 60.7597 116.334 60.3321 116.334C59.7884 116.334 59.2949 116.226 58.8515 116.01C58.4133 115.788 58.0649 115.484 57.8063 115.099C57.5529 114.708 57.4262 114.265 57.4262 113.769C57.4262 113.32 57.5107 112.921 57.6796 112.573C57.8485 112.225 58.0966 111.932 58.4239 111.694C58.7564 111.451 59.1708 111.269 59.667 111.148C60.1632 111.021 60.7386 110.958 61.3932 110.958H62.7155ZM71.5283 114.307V104.014H73.8245V116.176H71.7579L71.5283 114.307ZM66.1123 111.995V111.829C66.1123 111.174 66.1862 110.58 66.334 110.047C66.4818 109.509 66.6983 109.047 66.9833 108.662C67.2684 108.276 67.6194 107.978 68.0364 107.767C68.4534 107.556 68.9285 107.45 69.4617 107.45C69.9632 107.45 70.4013 107.556 70.7761 107.767C71.1561 107.978 71.4781 108.279 71.7421 108.669C72.0113 109.055 72.2277 109.511 72.3914 110.039C72.555 110.562 72.6738 111.135 72.7477 111.757V112.122C72.6738 112.718 72.555 113.272 72.3914 113.785C72.2277 114.297 72.0113 114.745 71.7421 115.131C71.4781 115.511 71.1561 115.806 70.7761 116.017C70.396 116.229 69.9526 116.334 69.4458 116.334C68.9127 116.334 68.4376 116.226 68.0206 116.01C67.6088 115.793 67.2604 115.49 66.9754 115.099C66.6956 114.708 66.4818 114.249 66.334 113.721C66.1862 113.193 66.1123 112.618 66.1123 111.995ZM68.3927 111.829V111.995C68.3927 112.349 68.4191 112.679 68.4719 112.985C68.53 113.291 68.6224 113.563 68.749 113.8C68.881 114.033 69.0499 114.215 69.2558 114.347C69.467 114.473 69.723 114.537 70.0239 114.537C70.4145 114.537 70.7365 114.45 70.9899 114.275C71.2432 114.096 71.4359 113.851 71.5679 113.539C71.7051 113.228 71.7843 112.869 71.8054 112.462V111.425C71.7896 111.092 71.7421 110.794 71.6629 110.53C71.589 110.261 71.4781 110.031 71.3303 109.841C71.1878 109.651 71.0083 109.503 70.7919 109.398C70.5808 109.292 70.33 109.24 70.0397 109.24C69.7441 109.24 69.4907 109.308 69.2796 109.445C69.0684 109.577 68.8969 109.76 68.7649 109.992C68.6382 110.224 68.5432 110.499 68.4798 110.815C68.4218 111.127 68.3927 111.465 68.3927 111.829ZM75.2419 111.979V111.813C75.2419 111.185 75.3316 110.607 75.5111 110.079C75.6906 109.546 75.9519 109.084 76.295 108.693C76.6381 108.303 77.0604 107.999 77.5619 107.783C78.0633 107.561 78.6387 107.45 79.288 107.45C79.9373 107.45 80.5153 107.561 81.0221 107.783C81.5288 107.999 81.9538 108.303 82.2969 108.693C82.6453 109.084 82.9092 109.546 83.0887 110.079C83.2682 110.607 83.3579 111.185 83.3579 111.813V111.979C83.3579 112.602 83.2682 113.18 83.0887 113.713C82.9092 114.241 82.6453 114.703 82.2969 115.099C81.9538 115.49 81.5315 115.793 81.03 116.01C80.5285 116.226 79.9531 116.334 79.3038 116.334C78.6546 116.334 78.0765 116.226 77.5698 116.01C77.0683 115.793 76.6434 115.49 76.295 115.099C75.9519 114.703 75.6906 114.241 75.5111 113.713C75.3316 113.18 75.2419 112.602 75.2419 111.979ZM77.5223 111.813V111.979C77.5223 112.338 77.5539 112.673 77.6173 112.985C77.6806 113.296 77.7809 113.571 77.9182 113.808C78.0607 114.041 78.2455 114.223 78.4724 114.355C78.6994 114.487 78.9766 114.553 79.3038 114.553C79.6206 114.553 79.8924 114.487 80.1194 114.355C80.3464 114.223 80.5285 114.041 80.6658 113.808C80.803 113.571 80.9033 113.296 80.9666 112.985C81.0353 112.673 81.0696 112.338 81.0696 111.979V111.813C81.0696 111.465 81.0353 111.137 80.9666 110.831C80.9033 110.52 80.8004 110.245 80.6578 110.008C80.5206 109.765 80.3385 109.575 80.1115 109.437C79.8845 109.3 79.61 109.232 79.288 109.232C78.966 109.232 78.6915 109.3 78.4645 109.437C78.2428 109.575 78.0607 109.765 77.9182 110.008C77.7809 110.245 77.6806 110.52 77.6173 110.831C77.5539 111.137 77.5223 111.465 77.5223 111.813ZM87.0398 109.477V116.176H84.7594V107.608H86.9052L87.0398 109.477ZM89.6211 107.553L89.5815 109.667C89.4707 109.651 89.336 109.638 89.1777 109.628C89.0246 109.612 88.8847 109.604 88.758 109.604C88.436 109.604 88.1563 109.646 87.9187 109.73C87.6864 109.81 87.4911 109.928 87.3328 110.087C87.1797 110.245 87.0636 110.438 86.9844 110.665C86.9105 110.892 86.8682 111.15 86.8577 111.441L86.3984 111.298C86.3984 110.744 86.4539 110.235 86.5647 109.77C86.6756 109.3 86.8366 108.891 87.0477 108.543C87.2641 108.194 87.5281 107.925 87.8395 107.735C88.151 107.545 88.5073 107.45 88.9085 107.45C89.0352 107.45 89.1645 107.461 89.2965 107.482C89.4284 107.498 89.5366 107.521 89.6211 107.553ZM99.7958 114.307V104.014H102.092V116.176H100.025L99.7958 114.307ZM94.3799 111.995V111.829C94.3799 111.174 94.4538 110.58 94.6016 110.047C94.7494 109.509 94.9658 109.047 95.2508 108.662C95.5359 108.276 95.8869 107.978 96.3039 107.767C96.721 107.556 97.196 107.45 97.7292 107.45C98.2307 107.45 98.6688 107.556 99.0436 107.767C99.4237 107.978 99.7457 108.279 100.01 108.669C100.279 109.055 100.495 109.511 100.659 110.039C100.823 110.562 100.941 111.135 101.015 111.757V112.122C100.941 112.718 100.823 113.272 100.659 113.785C100.495 114.297 100.279 114.745 100.01 115.131C99.7457 115.511 99.4237 115.806 99.0436 116.017C98.6635 116.229 98.2201 116.334 97.7134 116.334C97.1802 116.334 96.7051 116.226 96.2881 116.01C95.8764 115.793 95.528 115.49 95.2429 115.099C94.9632 114.708 94.7494 114.249 94.6016 113.721C94.4538 113.193 94.3799 112.618 94.3799 111.995ZM96.6603 111.829V111.995C96.6603 112.349 96.6867 112.679 96.7394 112.985C96.7975 113.291 96.8899 113.563 97.0166 113.8C97.1485 114.033 97.3175 114.215 97.5233 114.347C97.7345 114.473 97.9905 114.537 98.2914 114.537C98.682 114.537 99.004 114.45 99.2574 114.275C99.5108 114.096 99.7034 113.851 99.8354 113.539C99.9727 113.228 100.052 112.869 100.073 112.462V111.425C100.057 111.092 100.01 110.794 99.9304 110.53C99.8565 110.261 99.7457 110.031 99.5979 109.841C99.4553 109.651 99.2759 109.503 99.0594 109.398C98.8483 109.292 98.5975 109.24 98.3072 109.24C98.0116 109.24 97.7582 109.308 97.5471 109.445C97.3359 109.577 97.1644 109.76 97.0324 109.992C96.9057 110.224 96.8107 110.499 96.7474 110.815C96.6893 111.127 96.6603 111.465 96.6603 111.829ZM107.817 116.334C107.152 116.334 106.555 116.229 106.027 116.017C105.499 115.801 105.051 115.503 104.681 115.123C104.317 114.743 104.037 114.302 103.842 113.8C103.647 113.294 103.549 112.755 103.549 112.185V111.868C103.549 111.219 103.641 110.625 103.826 110.087C104.011 109.548 104.275 109.081 104.618 108.685C104.966 108.289 105.389 107.986 105.885 107.775C106.381 107.558 106.941 107.45 107.563 107.45C108.171 107.45 108.709 107.55 109.179 107.751C109.649 107.952 110.042 108.237 110.359 108.606C110.681 108.976 110.923 109.419 111.087 109.936C111.251 110.448 111.332 111.018 111.332 111.647V112.597H104.523V111.077H109.092V110.902C109.092 110.586 109.034 110.303 108.917 110.055C108.807 109.802 108.638 109.601 108.411 109.453C108.184 109.306 107.893 109.232 107.54 109.232C107.239 109.232 106.98 109.298 106.764 109.43C106.547 109.562 106.37 109.746 106.233 109.984C106.101 110.221 106.001 110.501 105.932 110.823C105.869 111.14 105.837 111.488 105.837 111.868V112.185C105.837 112.528 105.885 112.845 105.98 113.135C106.08 113.426 106.22 113.676 106.399 113.887C106.584 114.099 106.806 114.262 107.065 114.378C107.329 114.495 107.627 114.553 107.959 114.553C108.371 114.553 108.754 114.473 109.107 114.315C109.466 114.151 109.775 113.906 110.034 113.579L111.142 114.782C110.963 115.041 110.717 115.289 110.406 115.526C110.1 115.764 109.73 115.959 109.298 116.112C108.865 116.26 108.371 116.334 107.817 116.334ZM123.178 104.647H125.545V112.264C125.545 113.151 125.355 113.898 124.975 114.505C124.601 115.112 124.081 115.569 123.415 115.875C122.756 116.181 121.995 116.334 121.135 116.334C120.275 116.334 119.509 116.181 118.839 115.875C118.174 115.569 117.651 115.112 117.271 114.505C116.896 113.898 116.709 113.151 116.709 112.264V104.647H119.084V112.264C119.084 112.782 119.166 113.204 119.33 113.531C119.493 113.858 119.728 114.099 120.034 114.252C120.346 114.405 120.713 114.481 121.135 114.481C121.568 114.481 121.935 114.405 122.236 114.252C122.542 114.099 122.774 113.858 122.932 113.531C123.096 113.204 123.178 112.782 123.178 112.264V104.647ZM131.991 113.808C131.991 113.645 131.943 113.497 131.848 113.365C131.753 113.233 131.576 113.111 131.318 113.001C131.064 112.885 130.697 112.779 130.217 112.684C129.784 112.589 129.38 112.47 129.006 112.328C128.636 112.18 128.314 112.003 128.04 111.797C127.77 111.591 127.559 111.348 127.406 111.069C127.253 110.784 127.177 110.459 127.177 110.095C127.177 109.736 127.253 109.398 127.406 109.081C127.565 108.764 127.789 108.485 128.079 108.242C128.375 107.994 128.734 107.801 129.156 107.664C129.584 107.521 130.064 107.45 130.597 107.45C131.341 107.45 131.98 107.569 132.513 107.806C133.052 108.044 133.463 108.371 133.749 108.788C134.039 109.2 134.184 109.67 134.184 110.198H131.904C131.904 109.976 131.856 109.778 131.761 109.604C131.671 109.424 131.529 109.284 131.334 109.184C131.143 109.079 130.895 109.026 130.589 109.026C130.336 109.026 130.117 109.071 129.932 109.16C129.747 109.245 129.605 109.361 129.504 109.509C129.409 109.651 129.362 109.81 129.362 109.984C129.362 110.116 129.388 110.235 129.441 110.34C129.499 110.44 129.592 110.533 129.718 110.617C129.845 110.702 130.009 110.781 130.209 110.855C130.415 110.923 130.668 110.987 130.969 111.045C131.587 111.172 132.139 111.338 132.624 111.544C133.11 111.744 133.495 112.019 133.78 112.367C134.065 112.71 134.208 113.162 134.208 113.721C134.208 114.101 134.123 114.45 133.954 114.766C133.785 115.083 133.543 115.36 133.226 115.598C132.909 115.83 132.529 116.012 132.086 116.144C131.648 116.271 131.154 116.334 130.605 116.334C129.808 116.334 129.132 116.192 128.578 115.907C128.029 115.622 127.612 115.26 127.327 114.822C127.047 114.378 126.907 113.924 126.907 113.46H129.069C129.08 113.771 129.159 114.022 129.306 114.212C129.46 114.402 129.652 114.539 129.885 114.624C130.122 114.708 130.378 114.751 130.653 114.751C130.948 114.751 131.194 114.711 131.389 114.632C131.584 114.547 131.732 114.436 131.832 114.299C131.938 114.157 131.991 113.993 131.991 113.808ZM140.756 114.125V107.608H143.036V116.176H140.891L140.756 114.125ZM141.009 112.367L141.682 112.351C141.682 112.921 141.616 113.452 141.484 113.943C141.353 114.429 141.155 114.851 140.891 115.21C140.627 115.563 140.294 115.841 139.893 116.041C139.492 116.236 139.019 116.334 138.476 116.334C138.059 116.334 137.673 116.276 137.32 116.16C136.971 116.039 136.67 115.851 136.417 115.598C136.169 115.339 135.974 115.009 135.831 114.608C135.694 114.202 135.625 113.713 135.625 113.143V107.608H137.906V113.159C137.906 113.412 137.935 113.626 137.993 113.8C138.056 113.975 138.143 114.117 138.254 114.228C138.365 114.339 138.494 114.418 138.642 114.465C138.795 114.513 138.964 114.537 139.149 114.537C139.618 114.537 139.988 114.442 140.257 114.252C140.532 114.062 140.724 113.803 140.835 113.476C140.951 113.143 141.009 112.774 141.009 112.367ZM149.403 114.244V110.427C149.403 110.153 149.358 109.918 149.268 109.723C149.178 109.522 149.038 109.366 148.848 109.255C148.664 109.145 148.423 109.089 148.128 109.089C147.874 109.089 147.655 109.134 147.471 109.224C147.286 109.308 147.143 109.432 147.043 109.596C146.943 109.754 146.893 109.942 146.893 110.158H144.612C144.612 109.794 144.697 109.448 144.865 109.121C145.034 108.793 145.28 108.506 145.602 108.258C145.924 108.004 146.307 107.806 146.75 107.664C147.199 107.521 147.7 107.45 148.254 107.45C148.92 107.45 149.511 107.561 150.028 107.783C150.545 108.004 150.952 108.337 151.247 108.78C151.548 109.224 151.699 109.778 151.699 110.443V114.109C151.699 114.579 151.728 114.964 151.786 115.265C151.844 115.561 151.928 115.819 152.039 116.041V116.176H149.735C149.624 115.944 149.54 115.653 149.482 115.305C149.429 114.951 149.403 114.597 149.403 114.244ZM149.703 110.958L149.719 112.248H148.444C148.144 112.248 147.882 112.283 147.661 112.351C147.439 112.42 147.257 112.518 147.114 112.644C146.972 112.766 146.866 112.908 146.798 113.072C146.734 113.236 146.702 113.415 146.702 113.61C146.702 113.806 146.747 113.982 146.837 114.141C146.927 114.294 147.056 114.415 147.225 114.505C147.394 114.59 147.592 114.632 147.819 114.632C148.162 114.632 148.46 114.563 148.714 114.426C148.967 114.289 149.162 114.12 149.3 113.919C149.442 113.719 149.516 113.529 149.521 113.349L150.123 114.315C150.039 114.531 149.923 114.756 149.775 114.988C149.632 115.22 149.45 115.439 149.228 115.645C149.007 115.846 148.74 116.012 148.429 116.144C148.117 116.271 147.748 116.334 147.32 116.334C146.776 116.334 146.283 116.226 145.839 116.01C145.401 115.788 145.053 115.484 144.794 115.099C144.541 114.708 144.414 114.265 144.414 113.769C144.414 113.32 144.499 112.921 144.668 112.573C144.836 112.225 145.085 111.932 145.412 111.694C145.744 111.451 146.159 111.269 146.655 111.148C147.151 111.021 147.727 110.958 148.381 110.958H149.703ZM147.162 106.452L148.714 104.014H151.192L149.015 106.452H147.162ZM155.737 109.477V116.176H153.457V107.608H155.602L155.737 109.477ZM158.318 107.553L158.279 109.667C158.168 109.651 158.033 109.638 157.875 109.628C157.722 109.612 157.582 109.604 157.455 109.604C157.133 109.604 156.853 109.646 156.616 109.73C156.384 109.81 156.188 109.928 156.03 110.087C155.877 110.245 155.761 110.438 155.682 110.665C155.608 110.892 155.565 111.15 155.555 111.441L155.096 111.298C155.096 110.744 155.151 110.235 155.262 109.77C155.373 109.3 155.534 108.891 155.745 108.543C155.961 108.194 156.225 107.925 156.537 107.735C156.848 107.545 157.205 107.45 157.606 107.45C157.732 107.45 157.862 107.461 157.994 107.482C158.126 107.498 158.234 107.521 158.318 107.553ZM161.802 107.608V116.176H159.514V107.608H161.802ZM159.371 105.376C159.371 105.043 159.488 104.768 159.72 104.552C159.952 104.336 160.264 104.227 160.654 104.227C161.039 104.227 161.348 104.336 161.581 104.552C161.818 104.768 161.937 105.043 161.937 105.376C161.937 105.708 161.818 105.983 161.581 106.199C161.348 106.415 161.039 106.524 160.654 106.524C160.264 106.524 159.952 106.415 159.72 106.199C159.488 105.983 159.371 105.708 159.371 105.376ZM163.323 111.979V111.813C163.323 111.185 163.412 110.607 163.592 110.079C163.771 109.546 164.033 109.084 164.376 108.693C164.719 108.303 165.141 107.999 165.643 107.783C166.144 107.561 166.719 107.45 167.369 107.45C168.018 107.45 168.596 107.561 169.103 107.783C169.609 107.999 170.034 108.303 170.378 108.693C170.726 109.084 170.99 109.546 171.169 110.079C171.349 110.607 171.439 111.185 171.439 111.813V111.979C171.439 112.602 171.349 113.18 171.169 113.713C170.99 114.241 170.726 114.703 170.378 115.099C170.034 115.49 169.612 115.793 169.111 116.01C168.609 116.226 168.034 116.334 167.385 116.334C166.735 116.334 166.157 116.226 165.65 116.01C165.149 115.793 164.724 115.49 164.376 115.099C164.033 114.703 163.771 114.241 163.592 113.713C163.412 113.18 163.323 112.602 163.323 111.979ZM165.603 111.813V111.979C165.603 112.338 165.635 112.673 165.698 112.985C165.761 113.296 165.862 113.571 165.999 113.808C166.141 114.041 166.326 114.223 166.553 114.355C166.78 114.487 167.057 114.553 167.385 114.553C167.701 114.553 167.973 114.487 168.2 114.355C168.427 114.223 168.609 114.041 168.746 113.808C168.884 113.571 168.984 113.296 169.047 112.985C169.116 112.673 169.15 112.338 169.15 111.979V111.813C169.15 111.465 169.116 111.137 169.047 110.831C168.984 110.52 168.881 110.245 168.738 110.008C168.601 109.765 168.419 109.575 168.192 109.437C167.965 109.3 167.691 109.232 167.369 109.232C167.047 109.232 166.772 109.3 166.545 109.437C166.323 109.575 166.141 109.765 165.999 110.008C165.862 110.245 165.761 110.52 165.698 110.831C165.635 111.137 165.603 111.465 165.603 111.813ZM177.472 113.808C177.472 113.645 177.425 113.497 177.33 113.365C177.235 113.233 177.058 113.111 176.799 113.001C176.546 112.885 176.179 112.779 175.698 112.684C175.266 112.589 174.862 112.47 174.487 112.328C174.118 112.18 173.796 112.003 173.521 111.797C173.252 111.591 173.041 111.348 172.888 111.069C172.734 110.784 172.658 110.459 172.658 110.095C172.658 109.736 172.734 109.398 172.888 109.081C173.046 108.764 173.27 108.485 173.561 108.242C173.856 107.994 174.215 107.801 174.637 107.664C175.065 107.521 175.545 107.45 176.079 107.45C176.823 107.45 177.462 107.569 177.995 107.806C178.533 108.044 178.945 108.371 179.23 108.788C179.52 109.2 179.665 109.67 179.665 110.198H177.385C177.385 109.976 177.338 109.778 177.243 109.604C177.153 109.424 177.01 109.284 176.815 109.184C176.625 109.079 176.377 109.026 176.071 109.026C175.817 109.026 175.598 109.071 175.413 109.16C175.229 109.245 175.086 109.361 174.986 109.509C174.891 109.651 174.843 109.81 174.843 109.984C174.843 110.116 174.87 110.235 174.923 110.34C174.981 110.44 175.073 110.533 175.2 110.617C175.326 110.702 175.49 110.781 175.691 110.855C175.896 110.923 176.15 110.987 176.451 111.045C177.068 111.172 177.62 111.338 178.106 111.544C178.591 111.744 178.977 112.019 179.262 112.367C179.547 112.71 179.689 113.162 179.689 113.721C179.689 114.101 179.605 114.45 179.436 114.766C179.267 115.083 179.024 115.36 178.707 115.598C178.391 115.83 178.011 116.012 177.567 116.144C177.129 116.271 176.635 116.334 176.086 116.334C175.289 116.334 174.614 116.192 174.059 115.907C173.51 115.622 173.093 115.26 172.808 114.822C172.529 114.378 172.389 113.924 172.389 113.46H174.55C174.561 113.771 174.64 114.022 174.788 114.212C174.941 114.402 175.134 114.539 175.366 114.624C175.603 114.708 175.859 114.751 176.134 114.751C176.43 114.751 176.675 114.711 176.87 114.632C177.066 114.547 177.213 114.436 177.314 114.299C177.419 114.157 177.472 113.993 177.472 113.808Z" fill="#E1E1E6"/>
</g>
<defs>
<clipPath id="clip0_106_1125">
<rect width="180" height="128.108" fill="white" transform="translate(0.5 0.446045)"/>
</clipPath>
<clipPath id="clip1_106_1125">
<rect width="111.081" height="98.4927" fill="white" transform="translate(39.4189 0.446045)"/>
</clipPath>
</defs>
</svg>
